<svg xmlns="http://www.w3.org/2000/svg" xmlns:xlink="http://www.w3.org/1999/xlink" width="500" zoomAndPan="magnify" viewBox="0 0 375 374.999991" height="500" preserveAspectRatio="xMidYMid meet" version="1.0"><defs><clipPath id="c92b1e0e8f"><path d="M 187.5 0 C 83.945312 0 0 83.945312 0 187.5 C 0 291.054688 83.945312 375 187.5 375 C 291.054688 375 375 291.054688 375 187.5 C 375 83.945312 291.054688 0 187.5 0 Z M 187.5 0 " clip-rule="nonzero"/></clipPath><clipPath id="11e5252b8c"><path d="M 13.269531 92 L 71 92 L 71 272.886719 L 13.269531 272.886719 Z M 13.269531 92 " clip-rule="nonzero"/></clipPath><clipPath id="0a39c4e7d1"><path d="M 304.125 92.847656 L 361.71875 92.847656 L 361.71875 272.886719 L 304.125 272.886719 Z M 304.125 92.847656 " clip-rule="nonzero"/></clipPath><clipPath id="829a9e8370"><path d="M 160 51.636719 L 215 51.636719 L 215 111 L 160 111 Z M 160 51.636719 " clip-rule="nonzero"/></clipPath></defs><g clip-path="url(#c92b1e0e8f)"><rect x="-37.5" width="450" fill="#090a0e" y="-37.499999" height="449.999989" fill-opacity="1"/></g><path fill="#b12b24" d="M 132.078125 152.527344 C 127.804688 152.527344 123.820312 153.335938 120.125 154.953125 C 116.429688 156.570312 113.226562 158.75 110.515625 161.492188 C 107.800781 164.234375 105.648438 167.453125 104.0625 171.144531 C 102.476562 174.839844 101.679688 178.765625 101.679688 182.921875 C 101.679688 187.078125 102.476562 191.003906 104.0625 194.699219 C 105.648438 198.394531 107.800781 201.613281 110.515625 204.355469 C 113.226562 207.097656 116.429688 209.277344 120.125 210.890625 C 123.820312 212.507812 127.804688 213.316406 132.078125 213.316406 C 136.289062 213.316406 140.242188 212.507812 143.9375 210.890625 C 147.632812 209.277344 150.851562 207.082031 153.59375 204.3125 C 156.335938 201.539062 158.5 198.324219 160.089844 194.65625 C 161.675781 190.988281 162.46875 187.078125 162.46875 182.921875 C 162.46875 178.765625 161.675781 174.855469 160.089844 171.1875 C 158.5 167.523438 156.335938 164.304688 153.59375 161.535156 C 150.851562 158.761719 147.632812 156.570312 143.9375 154.953125 C 140.242188 153.335938 136.289062 152.527344 132.078125 152.527344 Z M 180.566406 182.921875 C 180.566406 196.429688 175.832031 207.859375 166.367188 217.210938 C 156.78125 226.679688 145.351562 231.414062 132.078125 231.414062 C 118.679688 231.414062 107.25 226.679688 97.785156 217.210938 C 88.316406 207.746094 83.582031 196.316406 83.582031 182.921875 C 83.582031 169.53125 88.316406 158.101562 97.785156 148.632812 C 107.25 139.164062 118.679688 134.429688 132.078125 134.429688 C 145.351562 134.429688 156.78125 139.164062 166.367188 148.632812 C 171.101562 153.363281 174.636719 158.589844 176.972656 164.304688 C 179.3125 170.019531 180.507812 176.226562 180.566406 182.921875 " fill-opacity="1" fill-rule="nonzero"/><path fill="#b12b24" d="M 242.914062 152.527344 C 238.640625 152.527344 234.660156 153.335938 230.964844 154.953125 C 227.269531 156.570312 224.066406 158.75 221.351562 161.492188 C 218.636719 164.234375 216.488281 167.453125 214.902344 171.144531 C 213.3125 174.839844 212.519531 178.765625 212.519531 182.921875 C 212.519531 187.078125 213.3125 191.003906 214.902344 194.699219 C 216.488281 198.394531 218.636719 201.613281 221.351562 204.355469 C 224.066406 207.097656 227.269531 209.277344 230.964844 210.890625 C 234.660156 212.507812 238.640625 213.316406 242.914062 213.316406 C 247.125 213.316406 251.082031 212.507812 254.777344 210.890625 C 258.472656 209.277344 261.691406 207.082031 264.433594 204.3125 C 267.175781 201.539062 269.339844 198.324219 270.925781 194.65625 C 272.511719 190.988281 273.308594 187.078125 273.308594 182.921875 C 273.308594 178.765625 272.511719 174.855469 270.925781 171.1875 C 269.339844 167.523438 267.175781 164.304688 264.433594 161.535156 C 261.691406 158.761719 258.472656 156.570312 254.777344 154.953125 C 251.082031 153.335938 247.125 152.527344 242.914062 152.527344 Z M 291.40625 182.921875 C 291.40625 196.429688 286.671875 207.859375 277.203125 217.210938 C 267.621094 226.679688 256.191406 231.414062 242.914062 231.414062 C 229.519531 231.414062 218.089844 226.679688 208.625 217.210938 C 199.15625 207.746094 194.421875 196.316406 194.421875 182.921875 C 194.421875 169.53125 199.15625 158.101562 208.625 148.632812 C 218.089844 139.164062 229.519531 134.429688 242.914062 134.429688 C 256.191406 134.429688 267.621094 139.164062 277.203125 148.632812 C 281.9375 153.363281 285.472656 158.589844 287.8125 164.304688 C 290.148438 170.019531 291.347656 176.226562 291.40625 182.921875 " fill-opacity="1" fill-rule="nonzero"/><g clip-path="url(#11e5252b8c)"><path fill="#fbdc6a" d="M 61.761719 92.953125 C 64.359375 92.953125 66.507812 93.832031 68.210938 95.59375 C 69.914062 97.355469 70.765625 99.503906 70.765625 102.042969 C 70.765625 104.640625 69.914062 106.792969 68.210938 108.496094 C 66.507812 110.199219 64.359375 111.050781 61.761719 111.050781 C 54.601562 111.050781 51.023438 114.628906 51.023438 121.789062 L 51.023438 163.179688 C 51.023438 171.492188 49.117188 178.074219 45.308594 182.921875 C 49.117188 187.773438 51.023438 194.351562 51.023438 202.664062 L 51.023438 244.058594 C 51.023438 251.214844 54.601562 254.796875 61.761719 254.796875 C 64.359375 254.796875 66.507812 255.644531 68.210938 257.351562 C 69.914062 259.050781 70.765625 261.203125 70.765625 263.800781 C 70.765625 266.398438 69.914062 268.566406 68.210938 270.296875 C 66.507812 272.027344 64.359375 272.894531 61.761719 272.894531 C 42.539062 272.894531 32.925781 263.28125 32.925781 244.058594 L 32.925781 202.664062 C 32.925781 195.507812 29.375 191.925781 22.273438 191.925781 C 19.675781 191.925781 17.527344 191.078125 15.824219 189.375 C 14.121094 187.671875 13.269531 185.519531 13.269531 182.921875 C 13.269531 180.324219 14.121094 178.171875 15.824219 176.472656 C 17.527344 174.769531 19.675781 173.917969 22.273438 173.917969 C 29.375 173.917969 32.925781 170.335938 32.925781 163.179688 L 32.925781 121.789062 C 32.925781 102.5625 42.539062 92.953125 61.761719 92.953125 " fill-opacity="1" fill-rule="nonzero"/></g><g clip-path="url(#0a39c4e7d1)"><path fill="#fbdc6a" d="M 342.0625 121.789062 L 342.0625 163.179688 C 342.0625 170.335938 345.613281 173.917969 352.714844 173.917969 C 355.3125 173.917969 357.460938 174.769531 359.164062 176.472656 C 360.871094 178.171875 361.71875 180.324219 361.71875 182.921875 C 361.71875 185.519531 360.871094 187.671875 359.164062 189.375 C 357.460938 191.078125 355.3125 191.925781 352.714844 191.925781 C 345.613281 191.925781 342.0625 195.507812 342.0625 202.664062 L 342.0625 244.058594 C 342.0625 263.28125 332.453125 272.894531 313.226562 272.894531 C 310.628906 272.894531 308.480469 272.027344 306.777344 270.296875 C 305.074219 268.566406 304.222656 266.398438 304.222656 263.800781 C 304.222656 261.203125 305.074219 259.050781 306.777344 257.351562 C 308.480469 255.644531 310.628906 254.796875 313.226562 254.796875 C 320.386719 254.796875 323.964844 251.214844 323.964844 244.058594 L 323.964844 202.664062 C 323.964844 194.351562 325.871094 187.773438 329.679688 182.921875 C 325.871094 178.074219 323.964844 171.492188 323.964844 163.179688 L 323.964844 121.789062 C 323.964844 114.628906 320.386719 111.050781 313.226562 111.050781 C 310.628906 111.050781 308.480469 110.199219 306.777344 108.496094 C 305.074219 106.792969 304.222656 104.640625 304.222656 102.042969 C 304.222656 99.503906 305.074219 97.355469 306.777344 95.59375 C 308.480469 93.832031 310.628906 92.953125 313.226562 92.953125 C 332.453125 92.953125 342.0625 102.5625 342.0625 121.789062 " fill-opacity="1" fill-rule="nonzero"/></g><g clip-path="url(#829a9e8370)"><path fill="#fbdc6a" d="M 214.597656 100.132812 C 214.597656 101.632812 214.308594 103.03125 213.730469 104.332031 C 213.152344 105.628906 212.390625 106.769531 211.4375 107.75 C 210.484375 108.734375 209.34375 109.496094 208.015625 110.046875 C 206.6875 110.597656 205.304688 110.867188 203.859375 110.867188 C 201.203125 110.867188 198.925781 109.945312 197.019531 108.097656 C 195.113281 106.25 193.554688 103.984375 192.34375 101.300781 C 191.132812 98.617188 190.25 95.84375 189.703125 92.988281 C 189.152344 90.128906 188.878906 87.460938 188.878906 84.976562 C 188.878906 74.757812 193.238281 64.425781 201.953125 53.976562 C 203.511719 52.417969 205.273438 51.640625 207.238281 51.640625 C 209.253906 51.640625 210.988281 52.359375 212.433594 53.804688 C 213.875 55.246094 214.597656 56.980469 214.597656 59 C 214.597656 59.980469 214.394531 60.992188 213.992188 62.03125 C 211.394531 68.382812 210.09375 74.414062 210.09375 80.128906 C 210.09375 85.554688 211.277344 90.808594 213.644531 95.890625 C 214.28125 97.332031 214.597656 98.746094 214.597656 100.132812 Z M 186.109375 100.132812 C 186.109375 101.632812 185.820312 103.03125 185.242188 104.332031 C 184.664062 105.628906 183.902344 106.769531 182.949219 107.75 C 181.996094 108.734375 180.855469 109.496094 179.527344 110.046875 C 178.199219 110.597656 176.816406 110.867188 175.371094 110.867188 C 172.714844 110.867188 170.4375 109.945312 168.53125 108.097656 C 166.625 106.25 165.066406 103.984375 163.855469 101.300781 C 162.640625 98.617188 161.761719 95.84375 161.214844 92.988281 C 160.664062 90.128906 160.390625 87.460938 160.390625 84.976562 C 160.390625 74.757812 164.75 64.425781 173.464844 53.976562 C 175.023438 52.417969 176.785156 51.640625 178.75 51.640625 C 180.769531 51.640625 182.5 52.359375 183.945312 53.804688 C 185.386719 55.246094 186.109375 56.980469 186.109375 59 C 186.109375 59.980469 185.90625 60.992188 185.503906 62.03125 C 182.90625 68.382812 181.605469 74.414062 181.605469 80.128906 C 181.605469 85.554688 182.789062 90.808594 185.15625 95.890625 C 185.789062 97.332031 186.109375 98.746094 186.109375 100.132812 " fill-opacity="1" fill-rule="nonzero"/></g></svg>