<svg xmlns="http://www.w3.org/2000/svg" xmlns:xlink="http://www.w3.org/1999/xlink" width="500" zoomAndPan="magnify" viewBox="0 0 375 374.999991" height="500" preserveAspectRatio="xMidYMid meet" version="1.0"><defs><g/><clipPath id="624d15882e"><path d="M 85.960938 117 L 120 117 L 120 221.964844 L 85.960938 221.964844 Z M 85.960938 117 " clip-rule="nonzero"/></clipPath><clipPath id="8efbb9a9c7"><path d="M 255.464844 117 L 289.03125 117 L 289.03125 221.914062 L 255.464844 221.914062 Z M 255.464844 117 " clip-rule="nonzero"/></clipPath><clipPath id="4d2c0de598"><path d="M 171 92.964844 L 204 92.964844 L 204 128 L 171 128 Z M 171 92.964844 " clip-rule="nonzero"/></clipPath></defs><path fill="#b12b24" d="M 155.199219 151.765625 C 152.707031 151.765625 150.386719 152.238281 148.234375 153.179688 C 146.078125 154.121094 144.210938 155.390625 142.632812 156.988281 C 141.050781 158.585938 139.796875 160.464844 138.871094 162.617188 C 137.945312 164.769531 137.484375 167.058594 137.484375 169.480469 C 137.484375 171.902344 137.945312 174.1875 138.871094 176.34375 C 139.796875 178.496094 141.050781 180.371094 142.632812 181.96875 C 144.210938 183.566406 146.078125 184.839844 148.234375 185.78125 C 150.386719 186.722656 152.707031 187.191406 155.199219 187.191406 C 157.652344 187.191406 159.957031 186.722656 162.109375 185.78125 C 164.265625 184.839844 166.140625 183.558594 167.738281 181.945312 C 169.335938 180.328125 170.597656 178.453125 171.523438 176.316406 C 172.449219 174.179688 172.910156 171.902344 172.910156 169.480469 C 172.910156 167.058594 172.449219 164.777344 171.523438 162.640625 C 170.597656 160.503906 169.335938 158.628906 167.738281 157.015625 C 166.140625 155.398438 164.265625 154.121094 162.109375 153.179688 C 159.957031 152.238281 157.652344 151.765625 155.199219 151.765625 Z M 183.457031 169.480469 C 183.457031 177.351562 180.699219 184.011719 175.183594 189.460938 C 169.597656 194.980469 162.933594 197.738281 155.199219 197.738281 C 147.390625 197.738281 140.730469 194.980469 135.214844 189.460938 C 129.695312 183.945312 126.9375 177.285156 126.9375 169.480469 C 126.9375 161.675781 129.695312 155.011719 135.214844 149.496094 C 140.730469 143.976562 147.390625 141.21875 155.199219 141.21875 C 162.933594 141.21875 169.597656 143.976562 175.183594 149.496094 C 177.941406 152.253906 180 155.296875 181.363281 158.628906 C 182.726562 161.960938 183.421875 165.578125 183.457031 169.480469 " fill-opacity="1" fill-rule="nonzero"/><path fill="#b12b24" d="M 219.792969 151.765625 C 217.304688 151.765625 214.980469 152.238281 212.828125 153.179688 C 210.675781 154.121094 208.808594 155.390625 207.226562 156.988281 C 205.644531 158.585938 204.390625 160.464844 203.46875 162.617188 C 202.542969 164.769531 202.078125 167.058594 202.078125 169.480469 C 202.078125 171.902344 202.542969 174.1875 203.46875 176.34375 C 204.390625 178.496094 205.644531 180.371094 207.226562 181.96875 C 208.808594 183.566406 210.675781 184.839844 212.828125 185.78125 C 214.980469 186.722656 217.304688 187.191406 219.792969 187.191406 C 222.246094 187.191406 224.550781 186.722656 226.707031 185.78125 C 228.859375 184.839844 230.734375 183.558594 232.332031 181.945312 C 233.929688 180.328125 235.191406 178.453125 236.117188 176.316406 C 237.042969 174.179688 237.507812 171.902344 237.507812 169.480469 C 237.507812 167.058594 237.042969 164.777344 236.117188 162.640625 C 235.191406 160.503906 233.929688 158.628906 232.332031 157.015625 C 230.734375 155.398438 228.859375 154.121094 226.707031 153.179688 C 224.550781 152.238281 222.246094 151.765625 219.792969 151.765625 Z M 248.054688 169.480469 C 248.054688 177.351562 245.292969 184.011719 239.777344 189.460938 C 234.191406 194.980469 227.53125 197.738281 219.792969 197.738281 C 211.988281 197.738281 205.324219 194.980469 199.808594 189.460938 C 194.289062 183.945312 191.53125 177.285156 191.53125 169.480469 C 191.53125 161.675781 194.289062 155.011719 199.808594 149.496094 C 205.324219 143.976562 211.988281 141.21875 219.792969 141.21875 C 227.53125 141.21875 234.191406 143.976562 239.777344 149.496094 C 242.535156 152.253906 244.59375 155.296875 245.957031 158.628906 C 247.320312 161.960938 248.015625 165.578125 248.054688 169.480469 " fill-opacity="1" fill-rule="nonzero"/><g clip-path="url(#624d15882e)"><path fill="#fbdc6a" d="M 114.21875 117.046875 C 115.734375 117.046875 116.988281 117.558594 117.980469 118.585938 C 118.972656 119.613281 119.46875 120.863281 119.46875 122.34375 C 119.46875 123.859375 118.972656 125.113281 117.980469 126.105469 C 116.988281 127.097656 115.734375 127.59375 114.21875 127.59375 C 110.046875 127.59375 107.960938 129.679688 107.960938 133.851562 L 107.960938 157.972656 C 107.960938 162.816406 106.851562 166.652344 104.632812 169.480469 C 106.851562 172.304688 107.960938 176.140625 107.960938 180.984375 L 107.960938 205.105469 C 107.960938 209.277344 110.046875 211.367188 114.21875 211.367188 C 115.734375 211.367188 116.988281 211.859375 117.980469 212.855469 C 118.972656 213.847656 119.46875 215.097656 119.46875 216.613281 C 119.46875 218.128906 118.972656 219.390625 117.980469 220.398438 C 116.988281 221.40625 115.734375 221.914062 114.21875 221.914062 C 103.015625 221.914062 97.414062 216.3125 97.414062 205.105469 L 97.414062 180.984375 C 97.414062 176.8125 95.347656 174.726562 91.207031 174.726562 C 89.695312 174.726562 88.441406 174.230469 87.449219 173.238281 C 86.457031 172.246094 85.960938 170.992188 85.960938 169.480469 C 85.960938 167.964844 86.457031 166.710938 87.449219 165.71875 C 88.441406 164.726562 89.695312 164.230469 91.207031 164.230469 C 95.347656 164.230469 97.414062 162.144531 97.414062 157.972656 L 97.414062 133.851562 C 97.414062 122.648438 103.015625 117.046875 114.21875 117.046875 " fill-opacity="1" fill-rule="nonzero"/></g><g clip-path="url(#8efbb9a9c7)"><path fill="#fbdc6a" d="M 277.574219 133.851562 L 277.574219 157.972656 C 277.574219 162.144531 279.644531 164.230469 283.78125 164.230469 C 285.296875 164.230469 286.550781 164.726562 287.539062 165.71875 C 288.535156 166.710938 289.03125 167.964844 289.03125 169.480469 C 289.03125 170.992188 288.535156 172.246094 287.539062 173.238281 C 286.550781 174.230469 285.296875 174.726562 283.78125 174.726562 C 279.644531 174.726562 277.574219 176.8125 277.574219 180.984375 L 277.574219 205.105469 C 277.574219 216.3125 271.972656 221.914062 260.769531 221.914062 C 259.253906 221.914062 258.003906 221.40625 257.007812 220.398438 C 256.019531 219.390625 255.523438 218.128906 255.523438 216.613281 C 255.523438 215.097656 256.019531 213.847656 257.007812 212.855469 C 258.003906 211.859375 259.253906 211.367188 260.769531 211.367188 C 264.941406 211.367188 267.027344 209.277344 267.027344 205.105469 L 267.027344 180.984375 C 267.027344 176.140625 268.136719 172.304688 270.359375 169.480469 C 268.136719 166.652344 267.027344 162.816406 267.027344 157.972656 L 267.027344 133.851562 C 267.027344 129.679688 264.941406 127.59375 260.769531 127.59375 C 259.253906 127.59375 258.003906 127.097656 257.007812 126.105469 C 256.019531 125.113281 255.523438 123.859375 255.523438 122.34375 C 255.523438 120.863281 256.019531 119.613281 257.007812 118.585938 C 258.003906 117.558594 259.253906 117.046875 260.769531 117.046875 C 271.972656 117.046875 277.574219 122.648438 277.574219 133.851562 " fill-opacity="1" fill-rule="nonzero"/></g><g clip-path="url(#4d2c0de598)"><path fill="#fbdc6a" d="M 203.292969 121.230469 C 203.292969 122.105469 203.121094 122.921875 202.785156 123.675781 C 202.449219 124.433594 202.003906 125.097656 201.449219 125.671875 C 200.894531 126.242188 200.226562 126.6875 199.457031 127.007812 C 198.679688 127.328125 197.875 127.488281 197.03125 127.488281 C 195.484375 127.488281 194.15625 126.949219 193.046875 125.871094 C 191.933594 124.796875 191.027344 123.476562 190.320312 121.910156 C 189.613281 120.347656 189.101562 118.730469 188.78125 117.066406 C 188.460938 115.402344 188.300781 113.84375 188.300781 112.398438 C 188.300781 106.445312 190.84375 100.421875 195.921875 94.332031 C 196.832031 93.421875 197.855469 92.96875 199 92.96875 C 200.175781 92.96875 201.1875 93.390625 202.027344 94.230469 C 202.867188 95.074219 203.292969 96.082031 203.292969 97.257812 C 203.292969 97.832031 203.171875 98.417969 202.9375 99.023438 C 201.421875 102.726562 200.667969 106.242188 200.667969 109.574219 C 200.667969 112.734375 201.355469 115.796875 202.734375 118.757812 C 203.105469 119.597656 203.292969 120.421875 203.292969 121.230469 Z M 186.6875 121.230469 C 186.6875 122.105469 186.519531 122.921875 186.183594 123.675781 C 185.84375 124.433594 185.398438 125.097656 184.84375 125.671875 C 184.289062 126.242188 183.625 126.6875 182.851562 127.007812 C 182.078125 127.328125 181.269531 127.488281 180.429688 127.488281 C 178.882812 127.488281 177.554688 126.949219 176.441406 125.871094 C 175.332031 124.796875 174.425781 123.476562 173.71875 121.910156 C 173.011719 120.347656 172.5 118.730469 172.179688 117.066406 C 171.859375 115.402344 171.699219 113.84375 171.699219 112.398438 C 171.699219 106.445312 174.238281 100.421875 179.320312 94.332031 C 180.226562 93.421875 181.253906 92.96875 182.398438 92.96875 C 183.574219 92.96875 184.585938 93.390625 185.425781 94.230469 C 186.265625 95.074219 186.6875 96.082031 186.6875 97.257812 C 186.6875 97.832031 186.570312 98.417969 186.335938 99.023438 C 184.820312 102.726562 184.0625 106.242188 184.0625 109.574219 C 184.0625 112.734375 184.753906 115.796875 186.132812 118.757812 C 186.503906 119.597656 186.6875 120.421875 186.6875 121.230469 " fill-opacity="1" fill-rule="nonzero"/></g><g fill="#fbdc6a" fill-opacity="1"><g transform="translate(109.110788, 260.938892)"><g><path d="M 8.015625 0.109375 C 7.148438 0.0351562 6.046875 0 4.703125 0 L 3.234375 0 L 3.234375 -25.03125 L 3.984375 -25 C 4.503906 -24.976562 4.894531 -24.96875 5.15625 -24.96875 L 5.703125 -24.96875 C 6.804688 -24.96875 7.578125 -25.015625 8.015625 -25.109375 L 8.015625 -14.515625 L 15.609375 -25.03125 C 16.410156 -24.988281 17.085938 -24.96875 17.640625 -24.96875 L 18.671875 -24.96875 C 19.960938 -24.96875 20.882812 -25.015625 21.4375 -25.109375 L 14.1875 -15.65625 L 21.328125 -1.5 C 21.617188 -0.8125 21.898438 -0.3125 22.171875 0 L 21.015625 0 C 18.378906 0 16.734375 0.0507812 16.078125 0.15625 C 15.941406 -0.6875 15.753906 -1.421875 15.515625 -2.046875 L 10.734375 -11.171875 L 8.015625 -7.59375 Z M 8.015625 0.109375 "/></g></g></g><g fill="#fbdc6a" fill-opacity="1"><g transform="translate(131.498439, 260.938892)"><g><path d="M 5.265625 -2.953125 C 4.128906 -4.046875 3.234375 -5.351562 2.578125 -6.875 C 1.921875 -8.40625 1.59375 -10.082031 1.59375 -11.90625 C 1.59375 -13.726562 1.898438 -15.453125 2.515625 -17.078125 C 3.128906 -18.703125 4.003906 -20.132812 5.140625 -21.375 C 6.273438 -22.613281 7.648438 -23.597656 9.265625 -24.328125 C 10.878906 -25.066406 12.691406 -25.4375 14.703125 -25.4375 C 18.148438 -25.4375 21.054688 -24.347656 23.421875 -22.171875 C 25.953125 -19.835938 27.21875 -16.695312 27.21875 -12.75 C 27.21875 -8.914062 25.914062 -5.726562 23.3125 -3.1875 C 21.707031 -1.625 19.796875 -0.550781 17.578125 0.03125 C 16.492188 0.320312 15.222656 0.46875 13.765625 0.46875 C 12.304688 0.46875 10.8125 0.171875 9.28125 -0.421875 C 7.75 -1.023438 6.410156 -1.867188 5.265625 -2.953125 Z M 6.8125 -12.15625 C 6.8125 -11 7.003906 -9.929688 7.390625 -8.953125 C 7.773438 -7.972656 8.316406 -7.132812 9.015625 -6.4375 C 10.472656 -4.957031 12.351562 -4.21875 14.65625 -4.21875 C 16.84375 -4.21875 18.601562 -4.925781 19.9375 -6.34375 C 21.28125 -7.8125 21.953125 -9.804688 21.953125 -12.328125 C 21.953125 -14.703125 21.3125 -16.6875 20.03125 -18.28125 C 18.632812 -19.976562 16.726562 -20.828125 14.3125 -20.828125 C 11.976562 -20.828125 10.125 -19.96875 8.75 -18.25 C 7.457031 -16.632812 6.8125 -14.601562 6.8125 -12.15625 Z M 20.859375 -31.90625 C 20.804688 -31.28125 20.78125 -30.804688 20.78125 -30.484375 L 20.78125 -29.84375 C 20.78125 -29.738281 20.804688 -29.363281 20.859375 -28.71875 L 8.1875 -28.71875 L 8.234375 -29.203125 C 8.296875 -29.617188 8.328125 -29.992188 8.328125 -30.328125 C 8.328125 -30.671875 8.289062 -31.195312 8.21875 -31.90625 Z M 20.859375 -31.90625 "/></g></g></g><g fill="#fbdc6a" fill-opacity="1"><g transform="translate(160.304008, 260.938892)"><g><path d="M 9.3125 0.46875 C 7.28125 0.46875 5.367188 0.304688 3.578125 -0.015625 L 3.578125 -25.125 C 5.234375 -25.332031 7.148438 -25.4375 9.328125 -25.4375 C 11.515625 -25.4375 13.492188 -25.132812 15.265625 -24.53125 C 17.035156 -23.9375 18.515625 -23.09375 19.703125 -22 C 22.109375 -19.789062 23.3125 -16.707031 23.3125 -12.75 C 23.3125 -8.300781 21.972656 -4.925781 19.296875 -2.625 C 16.890625 -0.5625 13.5625 0.46875 9.3125 0.46875 Z M 8.46875 -4.109375 C 9.28125 -3.960938 10.09375 -3.890625 10.90625 -3.890625 C 11.71875 -3.890625 12.59375 -4.046875 13.53125 -4.359375 C 14.46875 -4.679688 15.28125 -5.179688 15.96875 -5.859375 C 17.445312 -7.285156 18.1875 -9.363281 18.1875 -12.09375 C 18.1875 -16.570312 16.550781 -19.320312 13.28125 -20.34375 C 12.207031 -20.6875 10.960938 -20.859375 9.546875 -20.859375 L 9.046875 -20.859375 C 8.859375 -20.859375 8.664062 -20.847656 8.46875 -20.828125 Z M 8.46875 -4.109375 "/></g></g></g><g fill="#fbdc6a" fill-opacity="1"><g transform="translate(185.900617, 260.938892)"><g><path d="M 5.265625 -2.953125 C 4.128906 -4.046875 3.234375 -5.351562 2.578125 -6.875 C 1.921875 -8.40625 1.59375 -10.082031 1.59375 -11.90625 C 1.59375 -13.726562 1.898438 -15.453125 2.515625 -17.078125 C 3.128906 -18.703125 4.003906 -20.132812 5.140625 -21.375 C 6.273438 -22.613281 7.648438 -23.597656 9.265625 -24.328125 C 10.878906 -25.066406 12.691406 -25.4375 14.703125 -25.4375 C 18.148438 -25.4375 21.054688 -24.347656 23.421875 -22.171875 C 25.953125 -19.835938 27.21875 -16.695312 27.21875 -12.75 C 27.21875 -8.914062 25.914062 -5.726562 23.3125 -3.1875 C 21.707031 -1.625 19.796875 -0.550781 17.578125 0.03125 C 16.492188 0.320312 15.222656 0.46875 13.765625 0.46875 C 12.304688 0.46875 10.8125 0.171875 9.28125 -0.421875 C 7.75 -1.023438 6.410156 -1.867188 5.265625 -2.953125 Z M 6.8125 -12.15625 C 6.8125 -11 7.003906 -9.929688 7.390625 -8.953125 C 7.773438 -7.972656 8.316406 -7.132812 9.015625 -6.4375 C 10.472656 -4.957031 12.351562 -4.21875 14.65625 -4.21875 C 16.84375 -4.21875 18.601562 -4.925781 19.9375 -6.34375 C 21.28125 -7.8125 21.953125 -9.804688 21.953125 -12.328125 C 21.953125 -14.703125 21.3125 -16.6875 20.03125 -18.28125 C 18.632812 -19.976562 16.726562 -20.828125 14.3125 -20.828125 C 11.976562 -20.828125 10.125 -19.96875 8.75 -18.25 C 7.457031 -16.632812 6.8125 -14.601562 6.8125 -12.15625 Z M 6.8125 -12.15625 "/></g></g></g><g fill="#fbdc6a" fill-opacity="1"><g transform="translate(214.706187, 260.938892)"><g/></g></g><g fill="#fbdc6a" fill-opacity="1"><g transform="translate(227.448194, 260.938892)"><g><path d="M 4.84375 -28.4375 L 4.84375 -25.59375 L 33.671875 -25.59375 L 33.671875 -28.4375 Z M 7.296875 -15.984375 L 7.296875 -13.109375 L 30.671875 -13.109375 L 30.671875 -15.984375 Z M 2.65625 -2.734375 L 2.65625 0.15625 L 35.75 0.15625 L 35.75 -2.734375 Z M 2.65625 -2.734375 "/></g></g></g></svg>